<mxfile host="app.diagrams.net" modified="2022-04-27T06:18:36.023Z" agent="5.0 (Macintosh; Intel Mac OS X 10_15_7) AppleWebKit/537.36 (KHTML, like Gecko) Chrome/100.0.4896.127 Safari/537.36" etag="dvgvIhrsflHQliCqNphM" version="16.0.0" type="github">
  <diagram id="yR7lWw0GOb4siGWmbO0Y" name="Page-1">
    <mxGraphModel dx="1154" dy="771" grid="1" gridSize="10" guides="1" tooltips="1" connect="1" arrows="1" fold="1" page="1" pageScale="1" pageWidth="827" pageHeight="1169" math="0" shadow="0">
      <root>
        <mxCell id="0" />
        <mxCell id="1" parent="0" />
        <mxCell id="_PSmwTYHk7myfDLM_qST-4" style="edgeStyle=orthogonalEdgeStyle;rounded=0;orthogonalLoop=1;jettySize=auto;html=1;exitX=0.5;exitY=0;exitDx=0;exitDy=0;entryX=0.5;entryY=1;entryDx=0;entryDy=0;" edge="1" parent="1" source="_PSmwTYHk7myfDLM_qST-2" target="_PSmwTYHk7myfDLM_qST-3">
          <mxGeometry relative="1" as="geometry" />
        </mxCell>
        <mxCell id="_PSmwTYHk7myfDLM_qST-2" value="EfficientNet_B4在ImageNet预训练权重" style="shape=trapezoid;perimeter=trapezoidPerimeter;whiteSpace=wrap;html=1;fixedSize=1;rotation=90;align=center;textDirection=rtl;horizontal=0;labelBackgroundColor=none;fontSize=10;" vertex="1" parent="1">
          <mxGeometry x="60" y="220" width="120" height="80" as="geometry" />
        </mxCell>
        <mxCell id="_PSmwTYHk7myfDLM_qST-10" style="edgeStyle=orthogonalEdgeStyle;rounded=0;orthogonalLoop=1;jettySize=auto;html=1;exitX=0.25;exitY=0;exitDx=0;exitDy=0;entryX=0.5;entryY=1;entryDx=0;entryDy=0;fontSize=10;" edge="1" parent="1" source="_PSmwTYHk7myfDLM_qST-3" target="_PSmwTYHk7myfDLM_qST-5">
          <mxGeometry relative="1" as="geometry" />
        </mxCell>
        <mxCell id="_PSmwTYHk7myfDLM_qST-11" style="edgeStyle=orthogonalEdgeStyle;rounded=0;orthogonalLoop=1;jettySize=auto;html=1;exitX=0.5;exitY=0;exitDx=0;exitDy=0;entryX=0.5;entryY=1;entryDx=0;entryDy=0;fontSize=10;" edge="1" parent="1" source="_PSmwTYHk7myfDLM_qST-3" target="_PSmwTYHk7myfDLM_qST-7">
          <mxGeometry relative="1" as="geometry" />
        </mxCell>
        <mxCell id="_PSmwTYHk7myfDLM_qST-12" style="edgeStyle=orthogonalEdgeStyle;rounded=0;orthogonalLoop=1;jettySize=auto;html=1;exitX=0.75;exitY=0;exitDx=0;exitDy=0;entryX=0.5;entryY=1;entryDx=0;entryDy=0;fontSize=10;" edge="1" parent="1" source="_PSmwTYHk7myfDLM_qST-3" target="_PSmwTYHk7myfDLM_qST-8">
          <mxGeometry relative="1" as="geometry" />
        </mxCell>
        <mxCell id="_PSmwTYHk7myfDLM_qST-3" value="1024维特征向量" style="rounded=0;whiteSpace=wrap;html=1;direction=south;fontSize=10;" vertex="1" parent="1">
          <mxGeometry x="190" y="200" width="30" height="120" as="geometry" />
        </mxCell>
        <mxCell id="_PSmwTYHk7myfDLM_qST-18" style="edgeStyle=orthogonalEdgeStyle;rounded=0;orthogonalLoop=1;jettySize=auto;html=1;exitX=0.5;exitY=0;exitDx=0;exitDy=0;fontSize=10;" edge="1" parent="1" source="_PSmwTYHk7myfDLM_qST-5" target="_PSmwTYHk7myfDLM_qST-13">
          <mxGeometry relative="1" as="geometry" />
        </mxCell>
        <mxCell id="_PSmwTYHk7myfDLM_qST-5" value="32维向量" style="rounded=0;whiteSpace=wrap;html=1;direction=south;fontSize=10;" vertex="1" parent="1">
          <mxGeometry x="260" y="70" width="30" height="120" as="geometry" />
        </mxCell>
        <mxCell id="_PSmwTYHk7myfDLM_qST-29" style="edgeStyle=orthogonalEdgeStyle;rounded=0;orthogonalLoop=1;jettySize=auto;html=1;exitX=0.5;exitY=0;exitDx=0;exitDy=0;entryX=0.5;entryY=1;entryDx=0;entryDy=0;fontSize=10;" edge="1" parent="1" source="_PSmwTYHk7myfDLM_qST-7" target="_PSmwTYHk7myfDLM_qST-20">
          <mxGeometry relative="1" as="geometry" />
        </mxCell>
        <mxCell id="_PSmwTYHk7myfDLM_qST-7" value="64维向量" style="rounded=0;whiteSpace=wrap;html=1;direction=south;fontSize=10;" vertex="1" parent="1">
          <mxGeometry x="260" y="200" width="30" height="120" as="geometry" />
        </mxCell>
        <mxCell id="_PSmwTYHk7myfDLM_qST-30" style="edgeStyle=orthogonalEdgeStyle;rounded=0;orthogonalLoop=1;jettySize=auto;html=1;exitX=0.5;exitY=0;exitDx=0;exitDy=0;entryX=0.5;entryY=1;entryDx=0;entryDy=0;fontSize=10;" edge="1" parent="1" source="_PSmwTYHk7myfDLM_qST-8" target="_PSmwTYHk7myfDLM_qST-25">
          <mxGeometry relative="1" as="geometry" />
        </mxCell>
        <mxCell id="_PSmwTYHk7myfDLM_qST-8" value="128维向量" style="rounded=0;whiteSpace=wrap;html=1;direction=south;fontSize=10;" vertex="1" parent="1">
          <mxGeometry x="260" y="330" width="30" height="120" as="geometry" />
        </mxCell>
        <mxCell id="_PSmwTYHk7myfDLM_qST-16" value="BatchNorm" style="edgeStyle=orthogonalEdgeStyle;rounded=0;orthogonalLoop=1;jettySize=auto;html=1;exitX=0.5;exitY=0;exitDx=0;exitDy=0;entryX=0.5;entryY=1;entryDx=0;entryDy=0;fontSize=10;" edge="1" parent="1" source="_PSmwTYHk7myfDLM_qST-13" target="_PSmwTYHk7myfDLM_qST-14">
          <mxGeometry relative="1" as="geometry" />
        </mxCell>
        <mxCell id="_PSmwTYHk7myfDLM_qST-13" value="特征1a" style="rounded=0;whiteSpace=wrap;html=1;direction=south;fontSize=10;" vertex="1" parent="1">
          <mxGeometry x="310" y="70" width="30" height="120" as="geometry" />
        </mxCell>
        <mxCell id="_PSmwTYHk7myfDLM_qST-17" value="Linear" style="edgeStyle=orthogonalEdgeStyle;rounded=0;orthogonalLoop=1;jettySize=auto;html=1;exitX=0.5;exitY=0;exitDx=0;exitDy=0;entryX=0.5;entryY=1;entryDx=0;entryDy=0;fontSize=10;" edge="1" parent="1" source="_PSmwTYHk7myfDLM_qST-14" target="_PSmwTYHk7myfDLM_qST-15">
          <mxGeometry relative="1" as="geometry" />
        </mxCell>
        <mxCell id="_PSmwTYHk7myfDLM_qST-14" value="特征2a" style="rounded=0;whiteSpace=wrap;html=1;direction=south;fontSize=10;" vertex="1" parent="1">
          <mxGeometry x="414" y="70" width="30" height="120" as="geometry" />
        </mxCell>
        <mxCell id="_PSmwTYHk7myfDLM_qST-15" value="特征3a" style="rounded=0;whiteSpace=wrap;html=1;direction=south;fontSize=10;" vertex="1" parent="1">
          <mxGeometry x="490" y="70" width="30" height="120" as="geometry" />
        </mxCell>
        <mxCell id="_PSmwTYHk7myfDLM_qST-19" value="BatchNorm" style="edgeStyle=orthogonalEdgeStyle;rounded=0;orthogonalLoop=1;jettySize=auto;html=1;exitX=0.5;exitY=0;exitDx=0;exitDy=0;entryX=0.5;entryY=1;entryDx=0;entryDy=0;fontSize=10;" edge="1" parent="1" source="_PSmwTYHk7myfDLM_qST-20" target="_PSmwTYHk7myfDLM_qST-22">
          <mxGeometry relative="1" as="geometry" />
        </mxCell>
        <mxCell id="_PSmwTYHk7myfDLM_qST-20" value="特征1b" style="rounded=0;whiteSpace=wrap;html=1;direction=south;fontSize=10;" vertex="1" parent="1">
          <mxGeometry x="310" y="200" width="30" height="120" as="geometry" />
        </mxCell>
        <mxCell id="_PSmwTYHk7myfDLM_qST-21" value="Linear" style="edgeStyle=orthogonalEdgeStyle;rounded=0;orthogonalLoop=1;jettySize=auto;html=1;exitX=0.5;exitY=0;exitDx=0;exitDy=0;entryX=0.5;entryY=1;entryDx=0;entryDy=0;fontSize=10;" edge="1" parent="1" source="_PSmwTYHk7myfDLM_qST-22" target="_PSmwTYHk7myfDLM_qST-23">
          <mxGeometry relative="1" as="geometry" />
        </mxCell>
        <mxCell id="_PSmwTYHk7myfDLM_qST-22" value="特征2b" style="rounded=0;whiteSpace=wrap;html=1;direction=south;fontSize=10;" vertex="1" parent="1">
          <mxGeometry x="414" y="200" width="30" height="120" as="geometry" />
        </mxCell>
        <mxCell id="_PSmwTYHk7myfDLM_qST-23" value="特征3b" style="rounded=0;whiteSpace=wrap;html=1;direction=south;fontSize=10;" vertex="1" parent="1">
          <mxGeometry x="490" y="200" width="30" height="120" as="geometry" />
        </mxCell>
        <mxCell id="_PSmwTYHk7myfDLM_qST-24" value="BatchNorm" style="edgeStyle=orthogonalEdgeStyle;rounded=0;orthogonalLoop=1;jettySize=auto;html=1;exitX=0.5;exitY=0;exitDx=0;exitDy=0;entryX=0.5;entryY=1;entryDx=0;entryDy=0;fontSize=10;" edge="1" parent="1" source="_PSmwTYHk7myfDLM_qST-25" target="_PSmwTYHk7myfDLM_qST-27">
          <mxGeometry relative="1" as="geometry" />
        </mxCell>
        <mxCell id="_PSmwTYHk7myfDLM_qST-25" value="特征1c" style="rounded=0;whiteSpace=wrap;html=1;direction=south;fontSize=10;" vertex="1" parent="1">
          <mxGeometry x="310" y="330" width="30" height="120" as="geometry" />
        </mxCell>
        <mxCell id="_PSmwTYHk7myfDLM_qST-26" value="Linear" style="edgeStyle=orthogonalEdgeStyle;rounded=0;orthogonalLoop=1;jettySize=auto;html=1;exitX=0.5;exitY=0;exitDx=0;exitDy=0;entryX=0.5;entryY=1;entryDx=0;entryDy=0;fontSize=10;" edge="1" parent="1" source="_PSmwTYHk7myfDLM_qST-27" target="_PSmwTYHk7myfDLM_qST-28">
          <mxGeometry relative="1" as="geometry" />
        </mxCell>
        <mxCell id="_PSmwTYHk7myfDLM_qST-27" value="特征2c" style="rounded=0;whiteSpace=wrap;html=1;direction=south;fontSize=10;" vertex="1" parent="1">
          <mxGeometry x="414" y="330" width="30" height="120" as="geometry" />
        </mxCell>
        <mxCell id="_PSmwTYHk7myfDLM_qST-28" value="特征3c" style="rounded=0;whiteSpace=wrap;html=1;direction=south;fontSize=10;" vertex="1" parent="1">
          <mxGeometry x="490" y="330" width="30" height="120" as="geometry" />
        </mxCell>
      </root>
    </mxGraphModel>
  </diagram>
</mxfile>
